<svg xmlns="http://www.w3.org/2000/svg" viewBox="0 0 640 260" role="img" aria-label="Emergency plumbing service van">
  <rect width="640" height="260" fill="#eff3f7"/>
  <path d="M82 162h342l52-58h74c22 0 40 18 40 40v52H82z" fill="#fff" stroke="#c1ccd6" stroke-width="8"/>
  <path d="M424 162l42-44h52v44z" fill="#17212b"/>
  <rect x="126" y="104" width="188" height="58" rx="10" fill="#e71922"/>
  <path d="M158 133h124" stroke="#fff" stroke-width="13" stroke-linecap="round"/>
  <circle cx="184" cy="204" r="34" fill="#17212b"/>
  <circle cx="184" cy="204" r="14" fill="#8d9baa"/>
  <circle cx="492" cy="204" r="34" fill="#17212b"/>
  <circle cx="492" cy="204" r="14" fill="#8d9baa"/>
  <path d="M354 82l16-38 16 38 38 16-38 16-16 38-16-38-38-16z" fill="#e71922"/>
  <path d="M68 72h96M50 108h84M74 142h56" stroke="#e71922" stroke-width="14" stroke-linecap="round" opacity=".8"/>
</svg>
